HIERARCHY
ROOT root
{
	OFFSET 0.000000 0.000000 0.000000
	CHANNELS 6 Xposition Yposition Zposition Zrotation Yrotation Xrotation
	JOINT lhip
	{
		OFFSET 0.058581 -0.082280 -0.017664
		CHANNELS 3 Zrotation Yrotation Xrotation
		JOINT lknee
		{
			OFFSET 0.043451 -0.386469 0.008037
			CHANNELS 3 Zrotation Yrotation Xrotation
			JOINT lankle
			{
				OFFSET -0.014790 -0.426874 -0.037428
				CHANNELS 3 Zrotation Yrotation Xrotation
				JOINT ltoe
				{
					OFFSET 0.041054 -0.060286 0.122042
					CHANNELS 3 Zrotation Yrotation Xrotation
					End Site
					{
						OFFSET 0.000000 0.000000 0.000000
					}
				}
			}
		}
	}
	JOINT rhip
	{
		OFFSET -0.060310 -0.090513 -0.013543
		CHANNELS 3 Zrotation Yrotation Xrotation
		JOINT rknee
		{
			OFFSET -0.043257 -0.383688 -0.004843
			CHANNELS 3 Zrotation Yrotation Xrotation
			JOINT rankle
			{
				OFFSET 0.019056 -0.420046 -0.034562
				CHANNELS 3 Zrotation Yrotation Xrotation
				JOINT rtoe
				{
					OFFSET -0.034840 -0.062106 0.130323
					CHANNELS 3 Zrotation Yrotation Xrotation
					End Site
					{
						OFFSET 0.000000 0.000000 0.000000
					}
				}
			}
		}
	}
	JOINT lowerback
	{
		OFFSET 0.004439 0.124404 -0.038385
		CHANNELS 3 Zrotation Yrotation Xrotation
		JOINT upperback
		{
			OFFSET 0.004488 0.137956 0.026820
			CHANNELS 3 Zrotation Yrotation Xrotation
			JOINT chest
			{
				OFFSET -0.002265 0.056032 0.002855
				CHANNELS 3 Zrotation Yrotation Xrotation
				JOINT lowerneck
				{
					OFFSET -0.013390 0.211636 -0.033468
					CHANNELS 3 Zrotation Yrotation Xrotation
					JOINT upperneck
					{
						OFFSET 0.010113 0.088937 0.050410
						CHANNELS 3 Zrotation Yrotation Xrotation
						End Site
						{
							OFFSET 0.000000 0.000000 0.000000
						}
					}
				}
				JOINT lclavicle
				{
					OFFSET 0.071702 0.114000 -0.018898
					CHANNELS 3 Zrotation Yrotation Xrotation
					JOINT lshoulder
					{
						OFFSET 0.122921 0.045205 -0.019046
						CHANNELS 3 Zrotation Yrotation Xrotation
						JOINT lelbow
						{
							OFFSET 0.255332 -0.015649 -0.022946
							CHANNELS 3 Zrotation Yrotation Xrotation
							JOINT lwrist
							{
								OFFSET 0.265709 0.012698 -0.007375
								CHANNELS 3 Zrotation Yrotation Xrotation
								End Site
								{
									OFFSET 0.000000 0.000000 0.000000
								}
							}
						}
					}
				}
				JOINT rclavicle
				{
					OFFSET -0.082954 0.112472 -0.023707
					CHANNELS 3 Zrotation Yrotation Xrotation
					JOINT rshoulder
					{
						OFFSET -0.113228 0.046853 -0.008472
						CHANNELS 3 Zrotation Yrotation Xrotation
						JOINT relbow
						{
							OFFSET -0.260127 -0.014369 -0.031269
							CHANNELS 3 Zrotation Yrotation Xrotation
							JOINT rwrist
							{
								OFFSET -0.269108 0.006794 -0.006027
								CHANNELS 3 Zrotation Yrotation Xrotation
								End Site
								{
									OFFSET 0.000000 0.000000 0.000000
								}
							}
						}
					}
				}
			}
		}
	}
}
MOTION
Frames: 14
Frame Time: 0.033333
-0.017753 0.491898 0.998640 0.970612 -2.040202 89.571523 3.817665 1.485080 3.393967 0.700184 -13.589251 -5.376167 0.129214 6.483326 -4.558901 0.000000 -0.000000 0.000000 -4.781573 -1.602142 -4.808825 -3.812540 1.210302 9.904263 4.069207 -8.840591 -7.555229 0.000000 -0.000000 0.000000 -1.085732 -0.480068 8.195296 -1.196153 -1.116285 -1.585872 -2.009265 -1.582802 4.745132 -0.253239 -8.283896 1.682807 -1.184663 -12.933604 8.714638 -21.934147 7.803220 1.057346 -58.681357 -8.170043 9.628605 6.176343 -31.595363 14.029073 -1.548766 -1.329021 -3.738810 21.662354 -2.773399 -1.814776 62.151354 1.265568 17.258262 -2.179874 28.655240 11.616320 6.067288 1.555366 -0.770140 
-0.019730 0.493109 0.998744 1.138970 -2.064762 89.796771 3.910828 1.301689 2.879005 0.654702 -13.531854 -5.119770 0.142986 6.432148 -4.632620 0.000000 -0.000000 0.000000 -4.646126 -1.769823 -5.325160 -3.852907 1.100245 10.304199 4.159260 -8.716614 -7.744378 0.000000 -0.000000 0.000000 -1.051640 -0.437997 8.513644 -1.153204 -1.064341 -1.703659 -1.967315 -1.469109 4.839212 -0.400402 -8.078846 1.880698 -1.164422 -12.880525 8.692292 -21.755883 8.207032 0.885167 -58.693977 -8.180939 9.581636 6.269063 -32.247657 13.977091 -1.404168 -1.329391 -4.171110 21.334387 -2.873638 -1.833474 62.105099 1.137124 17.459138 -2.076934 28.960931 11.974021 5.820608 1.575899 -0.668186 
-0.021690 0.494437 0.998861 1.431034 -2.093248 89.803823 4.004001 1.303214 2.588973 0.676820 -13.731004 -4.953653 -0.069157 6.365575 -4.580017 0.000000 -0.000000 0.000000 -4.490188 -1.735341 -5.499987 -3.909130 0.953760 10.540633 4.114156 -8.928665 -7.888437 0.000000 -0.000000 0.000000 -0.960816 -0.408349 8.863013 -1.230371 -0.895538 -1.588167 -1.990072 -1.474823 5.101128 -0.295684 -7.978668 1.906560 -1.195033 -12.821916 9.018820 -21.888024 8.465490 0.787787 -58.493269 -8.275470 9.375975 6.778895 -33.078108 13.708851 -1.089580 -1.391896 -4.095856 21.323003 -2.956541 -1.922716 61.867572 1.213216 17.449472 -2.005128 29.241387 12.111587 5.605388 1.679338 -0.408512 
-0.024005 0.495826 0.998884 1.832517 -2.225471 90.006823 3.978174 1.067801 1.971881 0.668619 -13.815185 -4.549099 -0.070500 6.269739 -4.619859 0.000000 -0.000000 0.000000 -4.493876 -1.880681 -5.987162 -3.894577 0.607248 10.995053 4.108726 -8.808085 -8.104769 0.000000 -0.000000 0.000000 -0.825050 -0.373475 9.464141 -1.380935 -0.741803 -1.906689 -2.082739 -1.351169 5.020820 -0.138850 -7.759581 2.475752 -1.134271 -12.330544 9.357150 -22.018669 9.213246 0.950593 -58.322665 -7.896431 8.886848 8.414541 -34.647538 12.320941 -0.753588 -1.609739 -4.292037 21.253940 -3.311864 -1.623238 61.531668 0.905955 17.381905 -2.172859 30.345411 11.916272 5.470323 1.847928 -0.598403 
-0.025376 0.496498 0.998712 1.857115 -2.311241 90.232264 3.914092 0.995942 1.455623 0.698525 -13.860413 -4.148564 -0.133041 6.332266 -4.773785 0.000000 -0.000000 0.000000 -4.504921 -2.121961 -6.456758 -3.937811 0.436410 11.331700 4.270110 -8.442018 -8.317708 0.000000 -0.000000 0.000000 -0.743977 -0.322338 9.770229 -1.463783 -0.570326 -2.158698 -2.106758 -1.230617 5.028604 -0.148372 -7.321782 2.788803 -1.176061 -11.803859 9.850828 -22.085219 10.422038 0.596703 -58.618376 -7.704254 8.372649 10.348497 -35.613603 10.218932 0.228192 -1.799857 -4.922190 21.176933 -3.940632 -1.617278 61.093190 0.694541 17.607527 -2.466673 31.597925 11.648850 4.958874 2.145055 -0.788098 
-0.027641 0.497081 0.998756 2.143055 -2.385416 90.120556 3.937070 0.888566 1.060788 0.669207 -13.993502 -3.337320 -0.226285 6.289014 -5.173106 0.000000 -0.000000 0.000000 -4.463527 -2.380566 -6.473030 -3.965362 0.046525 11.612488 4.500591 -8.081210 -8.591224 0.000000 -0.000000 0.000000 -0.702800 -0.110638 10.324626 -1.480152 -0.206919 -2.203482 -1.914427 -1.151310 5.289041 -0.333308 -6.856492 3.216399 -1.295384 -10.975439 10.422726 -22.369496 11.795846 0.106747 -58.580629 -7.550546 7.237920 13.649123 -37.085446 6.038145 1.906318 -1.781606 -6.281983 20.894185 -5.016433 -1.616792 60.004094 0.181955 17.421494 -3.497346 34.626090 10.250107 4.079052 2.660763 -1.695546 
-0.028922 0.497512 0.998874 2.501252 -2.754287 89.873373 3.433986 0.813665 0.715218 0.744444 -14.474167 -2.340012 -0.270505 6.301484 -5.639566 0.000000 -0.000000 0.000000 -4.828525 -2.731323 -6.448966 -3.968706 -0.319047 12.092042 4.760277 -7.657666 -9.038074 0.000000 -0.000000 0.000000 -0.515252 0.110033 11.458835 -1.716873 0.159594 -2.440713 -1.948137 -0.970980 5.230005 -0.618533 -6.211225 3.642701 -1.287597 -10.046760 10.647932 -22.362023 13.188402 -0.389276 -57.628384 -7.199883 5.846749 17.142948 -39.101934 1.723456 3.591951 -1.529219 -7.276014 20.523968 -6.360228 -1.724723 58.417402 -0.741123 16.782849 -5.600790 38.559442 7.897179 2.988374 3.026011 -2.382067 
-0.030666 0.499499 0.998703 2.980383 -2.842959 89.869038 3.304258 0.426616 -0.523999 0.543747 -14.690376 -0.409665 -0.261844 6.374312 -6.282605 0.000000 -0.000000 0.000000 -4.776455 -2.841778 -6.931280 -4.106446 -0.686735 12.799670 5.009874 -7.705324 -9.152126 0.000000 -0.000000 0.000000 -0.136774 0.349271 12.559717 -1.748902 0.530293 -2.794522 -1.910438 -0.657462 5.563377 -0.832963 -5.421997 4.007739 -1.339623 -8.965882 10.593436 -22.141873 14.273871 -1.031606 -55.679354 -6.858386 4.551411 20.094004 -41.669289 -1.827694 5.179884 -1.399524 -7.229950 19.782382 -7.586101 -1.999837 56.214683 -1.413155 15.822844 -9.045739 42.426316 4.507782 1.529421 3.588207 -2.787673 
-0.032913 0.502243 0.997782 3.807160 -2.895160 90.696969 3.384542 -1.016002 -3.041134 -0.011623 -14.610799 2.063253 -0.405265 6.977742 -6.753594 0.000000 -0.000000 0.000000 -4.503181 -2.816832 -8.514548 -4.285724 -0.436004 13.757250 4.763785 -8.876954 -9.006526 0.000000 -0.000000 0.000000 0.090769 0.697092 12.072006 -1.673770 0.660787 -1.663555 -1.616054 -0.278422 5.130846 -1.925181 -5.851869 5.020436 -0.008833 -7.752766 9.392637 -21.211763 14.278188 -0.555385 -54.438598 -6.539691 2.829850 25.392409 -43.720908 -5.616152 8.821457 -2.352782 -8.657712 18.927234 -8.609338 -1.385909 53.536519 -1.675709 12.130796 -13.102764 46.538216 5.617875 2.340628 4.621595 -4.458779 
-0.033235 0.505865 0.998017 5.065750 -3.040342 90.474709 3.051346 -1.985505 -5.413022 -0.840068 -14.922254 6.349360 -0.170602 7.136347 -7.698373 0.000000 -0.000000 0.000000 -4.766937 -3.376211 -8.709752 -4.095862 -0.240165 14.347574 4.865574 -9.499142 -8.805793 0.000000 -0.000000 0.000000 1.098830 0.986869 13.765426 -1.757049 0.716607 -1.685249 -1.588538 -0.007115 5.209715 -2.730594 -5.997611 5.719540 0.074332 -6.391035 8.699574 -20.599953 14.704959 -0.745999 -52.019937 -5.742168 0.992847 32.227912 -47.792003 -12.330575 11.057082 -2.627552 -10.472473 17.530106 -8.951807 -1.263172 49.896851 -2.503680 9.361144 -20.735239 50.516383 -1.394147 0.544630 5.198383 -4.390210 
-0.033266 0.510593 0.997227 6.037250 -3.084578 90.426749 2.983793 -3.026156 -8.287064 -2.089653 -14.730794 10.892781 0.190612 7.387539 -8.366825 0.000000 -0.000000 0.000000 -4.876707 -3.396159 -9.279234 -4.111375 0.269503 15.125228 4.986685 -10.217080 -8.828823 0.000000 -0.000000 0.000000 1.893818 1.233195 15.075240 -1.645993 0.919410 -1.755916 -1.472874 0.174810 5.780238 -3.345666 -5.911999 5.802765 0.051597 -5.508034 8.064432 -20.227694 15.179636 -1.177320 -50.393807 -5.374941 -0.268581 38.914604 -51.858884 -18.245494 11.933218 -2.318412 -12.098939 16.519769 -9.244897 -1.531603 46.720874 -2.725795 7.402046 -28.295346 53.226219 -8.406244 -1.130758 5.911213 -4.315375 
-0.031955 0.515861 0.995311 6.616310 -3.172434 90.550019 2.797263 -4.001875 -11.510648 -3.436664 -14.224758 16.035597 1.284223 7.358371 -9.336886 0.000000 -0.000000 0.000000 -5.137790 -3.530030 -10.418884 -4.072760 0.694454 16.506138 5.068310 -10.283708 -9.109748 0.000000 -0.000000 0.000000 2.532392 1.683350 16.257430 -1.375303 1.217252 -1.768734 -1.311429 0.596493 5.798575 -3.710319 -6.310023 6.219964 0.311386 -5.219802 7.222360 -19.784685 15.231023 -1.247574 -49.098082 -4.795205 -0.933267 48.050925 -56.436077 -26.129836 13.736616 -2.442687 -13.014086 15.388057 -9.268042 -1.159561 43.905102 -3.452332 5.237622 -38.752419 56.079517 -18.541426 -3.512892 6.468792 -5.223690 
-0.029512 0.522596 0.992739 6.561526 -3.053695 90.624229 2.906295 -5.005770 -14.601823 -4.861648 -13.420973 21.362257 2.482145 7.147106 -10.938327 0.000000 -0.000000 0.000000 -5.137129 -3.544756 -11.851682 -4.121842 1.293749 18.112421 5.224170 -10.224792 -9.407198 0.000000 -0.000000 0.000000 3.159031 2.250163 17.996132 -1.064721 1.809161 -1.926025 -0.970416 0.601105 5.575125 -3.719335 -6.810896 6.178089 0.092824 -4.497563 6.838957 -19.760235 15.502730 -1.538749 -47.927008 -4.499397 -1.574447 61.079695 -61.084492 -37.292562 14.401695 -2.778294 -13.226945 14.568275 -9.308374 -1.165167 40.716400 -3.886343 3.423127 -51.429024 58.638918 -30.833290 -4.793686 7.818863 -6.596448 
-0.025916 0.529405 0.988990 5.695739 -2.879189 90.067511 2.931687 -5.461819 -16.509598 -6.496427 -13.692435 26.712383 2.870906 6.662027 -12.825168 0.000000 -0.000000 0.000000 -5.042639 -2.730267 -12.499849 -4.330201 1.923884 19.292841 5.174516 -10.398069 -9.809984 0.000000 -0.000000 0.000000 3.375820 2.172791 20.352405 -0.857281 2.022407 -2.056750 -0.722101 0.690586 5.336542 -3.622253 -6.717293 6.227880 0.275015 -3.716673 6.706511 -19.272092 15.487921 -1.454149 -47.293063 -3.453965 -2.475710 80.283135 -63.420952 -54.672165 16.377479 -2.690301 -14.779670 13.911957 -8.347098 -1.172777 38.222033 -3.703827 2.025926 -67.035030 60.192636 -45.408909 -7.469950 8.279129 -7.917184 
